<?xml version="1.0" encoding="utf-8" standalone="no"?>
<!DOCTYPE svg PUBLIC "-//W3C//DTD SVG 1.1//EN"
  "http://www.w3.org/Graphics/SVG/1.1/DTD/svg11.dtd">
<svg xmlns:xlink="http://www.w3.org/1999/xlink" width="720pt" height="360pt" viewBox="0 0 720 360" xmlns="http://www.w3.org/2000/svg" version="1.1">
 <metadata>
  <rdf:RDF xmlns:dc="http://purl.org/dc/elements/1.1/" xmlns:cc="http://creativecommons.org/ns#" xmlns:rdf="http://www.w3.org/1999/02/22-rdf-syntax-ns#">
   <cc:Work>
    <dc:type rdf:resource="http://purl.org/dc/dcmitype/StillImage"/>
    <dc:date>2022-06-29T05:48:18.891374</dc:date>
    <dc:format>image/svg+xml</dc:format>
    <dc:creator>
     <cc:Agent>
      <dc:title>Matplotlib v3.5.1, https://matplotlib.org/</dc:title>
     </cc:Agent>
    </dc:creator>
   </cc:Work>
  </rdf:RDF>
 </metadata>
 <defs>
  <style type="text/css">*{stroke-linejoin: round; stroke-linecap: butt}</style>
 </defs>
 <g id="figure_1">
  <g id="patch_1">
   <path d="M 0 360 
L 720 360 
L 720 0 
L 0 0 
L 0 360 
z
" style="fill: none"/>
  </g>
  <g id="axes_1">
   <g id="patch_2">
    <path d="M 90 315 
L 648 315 
L 648 43.2 
L 90 43.2 
z
" style="fill: #ffffff"/>
   </g>
   <g id="patch_3">
    <path d="M 115.363636 315 
L 124.422078 315 
L 124.422078 245.550523 
L 115.363636 245.550523 
z
" clip-path="url(#p0cca092d77)" style="fill: #fc7d0b; fill-opacity: 0.75; stroke: #000000; stroke-width: 0.905844; stroke-linejoin: miter"/>
   </g>
   <g id="patch_4">
    <path d="M 124.422078 315 
L 133.480519 315 
L 133.480519 308.686411 
L 124.422078 308.686411 
z
" clip-path="url(#p0cca092d77)" style="fill: #fc7d0b; fill-opacity: 0.75; stroke: #000000; stroke-width: 0.905844; stroke-linejoin: miter"/>
   </g>
   <g id="patch_5">
    <path d="M 133.480519 315 
L 142.538961 315 
L 142.538961 315 
L 133.480519 315 
z
" clip-path="url(#p0cca092d77)" style="fill: #fc7d0b; fill-opacity: 0.75; stroke: #000000; stroke-width: 0.905844; stroke-linejoin: miter"/>
   </g>
   <g id="patch_6">
    <path d="M 142.538961 315 
L 151.597403 315 
L 151.597403 315 
L 142.538961 315 
z
" clip-path="url(#p0cca092d77)" style="fill: #fc7d0b; fill-opacity: 0.75; stroke: #000000; stroke-width: 0.905844; stroke-linejoin: miter"/>
   </g>
   <g id="patch_7">
    <path d="M 151.597403 315 
L 160.655844 315 
L 160.655844 315 
L 151.597403 315 
z
" clip-path="url(#p0cca092d77)" style="fill: #fc7d0b; fill-opacity: 0.75; stroke: #000000; stroke-width: 0.905844; stroke-linejoin: miter"/>
   </g>
   <g id="patch_8">
    <path d="M 160.655844 315 
L 169.714286 315 
L 169.714286 315 
L 160.655844 315 
z
" clip-path="url(#p0cca092d77)" style="fill: #fc7d0b; fill-opacity: 0.75; stroke: #000000; stroke-width: 0.905844; stroke-linejoin: miter"/>
   </g>
   <g id="patch_9">
    <path d="M 169.714286 315 
L 178.772727 315 
L 178.772727 315 
L 169.714286 315 
z
" clip-path="url(#p0cca092d77)" style="fill: #fc7d0b; fill-opacity: 0.75; stroke: #000000; stroke-width: 0.905844; stroke-linejoin: miter"/>
   </g>
   <g id="patch_10">
    <path d="M 178.772727 315 
L 187.831169 315 
L 187.831169 315 
L 178.772727 315 
z
" clip-path="url(#p0cca092d77)" style="fill: #fc7d0b; fill-opacity: 0.75; stroke: #000000; stroke-width: 0.905844; stroke-linejoin: miter"/>
   </g>
   <g id="patch_11">
    <path d="M 187.831169 315 
L 196.88961 315 
L 196.88961 315 
L 187.831169 315 
z
" clip-path="url(#p0cca092d77)" style="fill: #fc7d0b; fill-opacity: 0.75; stroke: #000000; stroke-width: 0.905844; stroke-linejoin: miter"/>
   </g>
   <g id="patch_12">
    <path d="M 196.88961 315 
L 205.948052 315 
L 205.948052 315 
L 196.88961 315 
z
" clip-path="url(#p0cca092d77)" style="fill: #fc7d0b; fill-opacity: 0.75; stroke: #000000; stroke-width: 0.905844; stroke-linejoin: miter"/>
   </g>
   <g id="patch_13">
    <path d="M 205.948052 315 
L 215.006494 315 
L 215.006494 315 
L 205.948052 315 
z
" clip-path="url(#p0cca092d77)" style="fill: #fc7d0b; fill-opacity: 0.75; stroke: #000000; stroke-width: 0.905844; stroke-linejoin: miter"/>
   </g>
   <g id="patch_14">
    <path d="M 215.006494 315 
L 224.064935 315 
L 224.064935 315 
L 215.006494 315 
z
" clip-path="url(#p0cca092d77)" style="fill: #fc7d0b; fill-opacity: 0.75; stroke: #000000; stroke-width: 0.905844; stroke-linejoin: miter"/>
   </g>
   <g id="patch_15">
    <path d="M 224.064935 315 
L 233.123377 315 
L 233.123377 315 
L 224.064935 315 
z
" clip-path="url(#p0cca092d77)" style="fill: #fc7d0b; fill-opacity: 0.75; stroke: #000000; stroke-width: 0.905844; stroke-linejoin: miter"/>
   </g>
   <g id="patch_16">
    <path d="M 233.123377 315 
L 242.181818 315 
L 242.181818 315 
L 233.123377 315 
z
" clip-path="url(#p0cca092d77)" style="fill: #fc7d0b; fill-opacity: 0.75; stroke: #000000; stroke-width: 0.905844; stroke-linejoin: miter"/>
   </g>
   <g id="patch_17">
    <path d="M 242.181818 315 
L 251.24026 315 
L 251.24026 315 
L 242.181818 315 
z
" clip-path="url(#p0cca092d77)" style="fill: #fc7d0b; fill-opacity: 0.75; stroke: #000000; stroke-width: 0.905844; stroke-linejoin: miter"/>
   </g>
   <g id="patch_18">
    <path d="M 251.24026 315 
L 260.298701 315 
L 260.298701 315 
L 251.24026 315 
z
" clip-path="url(#p0cca092d77)" style="fill: #fc7d0b; fill-opacity: 0.75; stroke: #000000; stroke-width: 0.905844; stroke-linejoin: miter"/>
   </g>
   <g id="patch_19">
    <path d="M 260.298701 315 
L 269.357143 315 
L 269.357143 315 
L 260.298701 315 
z
" clip-path="url(#p0cca092d77)" style="fill: #fc7d0b; fill-opacity: 0.75; stroke: #000000; stroke-width: 0.905844; stroke-linejoin: miter"/>
   </g>
   <g id="patch_20">
    <path d="M 269.357143 315 
L 278.415584 315 
L 278.415584 315 
L 269.357143 315 
z
" clip-path="url(#p0cca092d77)" style="fill: #fc7d0b; fill-opacity: 0.75; stroke: #000000; stroke-width: 0.905844; stroke-linejoin: miter"/>
   </g>
   <g id="patch_21">
    <path d="M 278.415584 315 
L 287.474026 315 
L 287.474026 315 
L 278.415584 315 
z
" clip-path="url(#p0cca092d77)" style="fill: #fc7d0b; fill-opacity: 0.75; stroke: #000000; stroke-width: 0.905844; stroke-linejoin: miter"/>
   </g>
   <g id="patch_22">
    <path d="M 287.474026 315 
L 296.532468 315 
L 296.532468 315 
L 287.474026 315 
z
" clip-path="url(#p0cca092d77)" style="fill: #fc7d0b; fill-opacity: 0.75; stroke: #000000; stroke-width: 0.905844; stroke-linejoin: miter"/>
   </g>
   <g id="patch_23">
    <path d="M 296.532468 315 
L 305.590909 315 
L 305.590909 315 
L 296.532468 315 
z
" clip-path="url(#p0cca092d77)" style="fill: #fc7d0b; fill-opacity: 0.75; stroke: #000000; stroke-width: 0.905844; stroke-linejoin: miter"/>
   </g>
   <g id="patch_24">
    <path d="M 305.590909 315 
L 314.649351 315 
L 314.649351 315 
L 305.590909 315 
z
" clip-path="url(#p0cca092d77)" style="fill: #fc7d0b; fill-opacity: 0.75; stroke: #000000; stroke-width: 0.905844; stroke-linejoin: miter"/>
   </g>
   <g id="patch_25">
    <path d="M 314.649351 315 
L 323.707792 315 
L 323.707792 315 
L 314.649351 315 
z
" clip-path="url(#p0cca092d77)" style="fill: #fc7d0b; fill-opacity: 0.75; stroke: #000000; stroke-width: 0.905844; stroke-linejoin: miter"/>
   </g>
   <g id="patch_26">
    <path d="M 323.707792 315 
L 332.766234 315 
L 332.766234 315 
L 323.707792 315 
z
" clip-path="url(#p0cca092d77)" style="fill: #fc7d0b; fill-opacity: 0.75; stroke: #000000; stroke-width: 0.905844; stroke-linejoin: miter"/>
   </g>
   <g id="patch_27">
    <path d="M 332.766234 315 
L 341.824675 315 
L 341.824675 315 
L 332.766234 315 
z
" clip-path="url(#p0cca092d77)" style="fill: #fc7d0b; fill-opacity: 0.75; stroke: #000000; stroke-width: 0.905844; stroke-linejoin: miter"/>
   </g>
   <g id="patch_28">
    <path d="M 341.824675 315 
L 350.883117 315 
L 350.883117 315 
L 341.824675 315 
z
" clip-path="url(#p0cca092d77)" style="fill: #fc7d0b; fill-opacity: 0.75; stroke: #000000; stroke-width: 0.905844; stroke-linejoin: miter"/>
   </g>
   <g id="patch_29">
    <path d="M 350.883117 315 
L 359.941558 315 
L 359.941558 315 
L 350.883117 315 
z
" clip-path="url(#p0cca092d77)" style="fill: #fc7d0b; fill-opacity: 0.75; stroke: #000000; stroke-width: 0.905844; stroke-linejoin: miter"/>
   </g>
   <g id="patch_30">
    <path d="M 359.941558 315 
L 369 315 
L 369 315 
L 359.941558 315 
z
" clip-path="url(#p0cca092d77)" style="fill: #fc7d0b; fill-opacity: 0.75; stroke: #000000; stroke-width: 0.905844; stroke-linejoin: miter"/>
   </g>
   <g id="patch_31">
    <path d="M 369 315 
L 378.058442 315 
L 378.058442 315 
L 369 315 
z
" clip-path="url(#p0cca092d77)" style="fill: #fc7d0b; fill-opacity: 0.75; stroke: #000000; stroke-width: 0.905844; stroke-linejoin: miter"/>
   </g>
   <g id="patch_32">
    <path d="M 378.058442 315 
L 387.116883 315 
L 387.116883 315 
L 378.058442 315 
z
" clip-path="url(#p0cca092d77)" style="fill: #fc7d0b; fill-opacity: 0.75; stroke: #000000; stroke-width: 0.905844; stroke-linejoin: miter"/>
   </g>
   <g id="patch_33">
    <path d="M 387.116883 315 
L 396.175325 315 
L 396.175325 315 
L 387.116883 315 
z
" clip-path="url(#p0cca092d77)" style="fill: #fc7d0b; fill-opacity: 0.75; stroke: #000000; stroke-width: 0.905844; stroke-linejoin: miter"/>
   </g>
   <g id="patch_34">
    <path d="M 396.175325 315 
L 405.233766 315 
L 405.233766 315 
L 396.175325 315 
z
" clip-path="url(#p0cca092d77)" style="fill: #fc7d0b; fill-opacity: 0.75; stroke: #000000; stroke-width: 0.905844; stroke-linejoin: miter"/>
   </g>
   <g id="patch_35">
    <path d="M 405.233766 315 
L 414.292208 315 
L 414.292208 315 
L 405.233766 315 
z
" clip-path="url(#p0cca092d77)" style="fill: #fc7d0b; fill-opacity: 0.75; stroke: #000000; stroke-width: 0.905844; stroke-linejoin: miter"/>
   </g>
   <g id="patch_36">
    <path d="M 414.292208 315 
L 423.350649 315 
L 423.350649 315 
L 414.292208 315 
z
" clip-path="url(#p0cca092d77)" style="fill: #fc7d0b; fill-opacity: 0.75; stroke: #000000; stroke-width: 0.905844; stroke-linejoin: miter"/>
   </g>
   <g id="patch_37">
    <path d="M 423.350649 315 
L 432.409091 315 
L 432.409091 315 
L 423.350649 315 
z
" clip-path="url(#p0cca092d77)" style="fill: #fc7d0b; fill-opacity: 0.75; stroke: #000000; stroke-width: 0.905844; stroke-linejoin: miter"/>
   </g>
   <g id="patch_38">
    <path d="M 432.409091 315 
L 441.467532 315 
L 441.467532 277.118467 
L 432.409091 277.118467 
z
" clip-path="url(#p0cca092d77)" style="fill: #fc7d0b; fill-opacity: 0.75; stroke: #000000; stroke-width: 0.905844; stroke-linejoin: miter"/>
   </g>
   <g id="patch_39">
    <path d="M 441.467532 315 
L 450.525974 315 
L 450.525974 251.864111 
L 441.467532 251.864111 
z
" clip-path="url(#p0cca092d77)" style="fill: #fc7d0b; fill-opacity: 0.75; stroke: #000000; stroke-width: 0.905844; stroke-linejoin: miter"/>
   </g>
   <g id="patch_40">
    <path d="M 450.525974 315 
L 459.584416 315 
L 459.584416 315 
L 450.525974 315 
z
" clip-path="url(#p0cca092d77)" style="fill: #fc7d0b; fill-opacity: 0.75; stroke: #000000; stroke-width: 0.905844; stroke-linejoin: miter"/>
   </g>
   <g id="patch_41">
    <path d="M 459.584416 315 
L 468.642857 315 
L 468.642857 315 
L 459.584416 315 
z
" clip-path="url(#p0cca092d77)" style="fill: #fc7d0b; fill-opacity: 0.75; stroke: #000000; stroke-width: 0.905844; stroke-linejoin: miter"/>
   </g>
   <g id="patch_42">
    <path d="M 468.642857 315 
L 477.701299 315 
L 477.701299 315 
L 468.642857 315 
z
" clip-path="url(#p0cca092d77)" style="fill: #fc7d0b; fill-opacity: 0.75; stroke: #000000; stroke-width: 0.905844; stroke-linejoin: miter"/>
   </g>
   <g id="patch_43">
    <path d="M 477.701299 315 
L 486.75974 315 
L 486.75974 315 
L 477.701299 315 
z
" clip-path="url(#p0cca092d77)" style="fill: #fc7d0b; fill-opacity: 0.75; stroke: #000000; stroke-width: 0.905844; stroke-linejoin: miter"/>
   </g>
   <g id="patch_44">
    <path d="M 486.75974 315 
L 495.818182 315 
L 495.818182 315 
L 486.75974 315 
z
" clip-path="url(#p0cca092d77)" style="fill: #fc7d0b; fill-opacity: 0.75; stroke: #000000; stroke-width: 0.905844; stroke-linejoin: miter"/>
   </g>
   <g id="patch_45">
    <path d="M 495.818182 315 
L 504.876623 315 
L 504.876623 315 
L 495.818182 315 
z
" clip-path="url(#p0cca092d77)" style="fill: #fc7d0b; fill-opacity: 0.75; stroke: #000000; stroke-width: 0.905844; stroke-linejoin: miter"/>
   </g>
   <g id="patch_46">
    <path d="M 504.876623 315 
L 513.935065 315 
L 513.935065 315 
L 504.876623 315 
z
" clip-path="url(#p0cca092d77)" style="fill: #fc7d0b; fill-opacity: 0.75; stroke: #000000; stroke-width: 0.905844; stroke-linejoin: miter"/>
   </g>
   <g id="patch_47">
    <path d="M 513.935065 315 
L 522.993506 315 
L 522.993506 315 
L 513.935065 315 
z
" clip-path="url(#p0cca092d77)" style="fill: #fc7d0b; fill-opacity: 0.75; stroke: #000000; stroke-width: 0.905844; stroke-linejoin: miter"/>
   </g>
   <g id="patch_48">
    <path d="M 522.993506 315 
L 532.051948 315 
L 532.051948 315 
L 522.993506 315 
z
" clip-path="url(#p0cca092d77)" style="fill: #fc7d0b; fill-opacity: 0.75; stroke: #000000; stroke-width: 0.905844; stroke-linejoin: miter"/>
   </g>
   <g id="patch_49">
    <path d="M 532.051948 315 
L 541.11039 315 
L 541.11039 315 
L 532.051948 315 
z
" clip-path="url(#p0cca092d77)" style="fill: #fc7d0b; fill-opacity: 0.75; stroke: #000000; stroke-width: 0.905844; stroke-linejoin: miter"/>
   </g>
   <g id="patch_50">
    <path d="M 541.11039 315 
L 550.168831 315 
L 550.168831 315 
L 541.11039 315 
z
" clip-path="url(#p0cca092d77)" style="fill: #fc7d0b; fill-opacity: 0.75; stroke: #000000; stroke-width: 0.905844; stroke-linejoin: miter"/>
   </g>
   <g id="patch_51">
    <path d="M 550.168831 315 
L 559.227273 315 
L 559.227273 315 
L 550.168831 315 
z
" clip-path="url(#p0cca092d77)" style="fill: #fc7d0b; fill-opacity: 0.75; stroke: #000000; stroke-width: 0.905844; stroke-linejoin: miter"/>
   </g>
   <g id="patch_52">
    <path d="M 559.227273 315 
L 568.285714 315 
L 568.285714 315 
L 559.227273 315 
z
" clip-path="url(#p0cca092d77)" style="fill: #fc7d0b; fill-opacity: 0.75; stroke: #000000; stroke-width: 0.905844; stroke-linejoin: miter"/>
   </g>
   <g id="patch_53">
    <path d="M 568.285714 315 
L 577.344156 315 
L 577.344156 315 
L 568.285714 315 
z
" clip-path="url(#p0cca092d77)" style="fill: #fc7d0b; fill-opacity: 0.75; stroke: #000000; stroke-width: 0.905844; stroke-linejoin: miter"/>
   </g>
   <g id="patch_54">
    <path d="M 577.344156 315 
L 586.402597 315 
L 586.402597 315 
L 577.344156 315 
z
" clip-path="url(#p0cca092d77)" style="fill: #fc7d0b; fill-opacity: 0.75; stroke: #000000; stroke-width: 0.905844; stroke-linejoin: miter"/>
   </g>
   <g id="patch_55">
    <path d="M 586.402597 315 
L 595.461039 315 
L 595.461039 308.686411 
L 586.402597 308.686411 
z
" clip-path="url(#p0cca092d77)" style="fill: #fc7d0b; fill-opacity: 0.75; stroke: #000000; stroke-width: 0.905844; stroke-linejoin: miter"/>
   </g>
   <g id="patch_56">
    <path d="M 595.461039 315 
L 604.519481 315 
L 604.519481 308.686411 
L 595.461039 308.686411 
z
" clip-path="url(#p0cca092d77)" style="fill: #fc7d0b; fill-opacity: 0.75; stroke: #000000; stroke-width: 0.905844; stroke-linejoin: miter"/>
   </g>
   <g id="patch_57">
    <path d="M 604.519481 315 
L 613.577922 315 
L 613.577922 56.142857 
L 604.519481 56.142857 
z
" clip-path="url(#p0cca092d77)" style="fill: #fc7d0b; fill-opacity: 0.75; stroke: #000000; stroke-width: 0.905844; stroke-linejoin: miter"/>
   </g>
   <g id="patch_58">
    <path d="M 613.577922 315 
L 622.636364 315 
L 622.636364 302.372822 
L 613.577922 302.372822 
z
" clip-path="url(#p0cca092d77)" style="fill: #fc7d0b; fill-opacity: 0.75; stroke: #000000; stroke-width: 0.905844; stroke-linejoin: miter"/>
   </g>
   <g id="matplotlib.axis_1">
    <g id="xtick_1">
     <g id="line2d_1">
      <defs>
       <path id="m713759fb77" d="M 0 0 
L 0 3.5 
" style="stroke: #000000; stroke-width: 0.8"/>
      </defs>
      <g>
       <use xlink:href="#m713759fb77" x="171.221861" y="315" style="stroke: #000000; stroke-width: 0.8"/>
      </g>
     </g>
     <g id="text_1">
      <!-- -30.0 -->
      <g transform="translate(151.816782 333.397656)scale(0.15 -0.15)">
       <defs>
        <path id="DejaVuSans-2d" d="M 313 2009 
L 1997 2009 
L 1997 1497 
L 313 1497 
L 313 2009 
z
" transform="scale(0.015625)"/>
        <path id="DejaVuSans-33" d="M 2597 2516 
Q 3050 2419 3304 2112 
Q 3559 1806 3559 1356 
Q 3559 666 3084 287 
Q 2609 -91 1734 -91 
Q 1441 -91 1130 -33 
Q 819 25 488 141 
L 488 750 
Q 750 597 1062 519 
Q 1375 441 1716 441 
Q 2309 441 2620 675 
Q 2931 909 2931 1356 
Q 2931 1769 2642 2001 
Q 2353 2234 1838 2234 
L 1294 2234 
L 1294 2753 
L 1863 2753 
Q 2328 2753 2575 2939 
Q 2822 3125 2822 3475 
Q 2822 3834 2567 4026 
Q 2313 4219 1838 4219 
Q 1578 4219 1281 4162 
Q 984 4106 628 3988 
L 628 4550 
Q 988 4650 1302 4700 
Q 1616 4750 1894 4750 
Q 2613 4750 3031 4423 
Q 3450 4097 3450 3541 
Q 3450 3153 3228 2886 
Q 3006 2619 2597 2516 
z
" transform="scale(0.015625)"/>
        <path id="DejaVuSans-30" d="M 2034 4250 
Q 1547 4250 1301 3770 
Q 1056 3291 1056 2328 
Q 1056 1369 1301 889 
Q 1547 409 2034 409 
Q 2525 409 2770 889 
Q 3016 1369 3016 2328 
Q 3016 3291 2770 3770 
Q 2525 4250 2034 4250 
z
M 2034 4750 
Q 2819 4750 3233 4129 
Q 3647 3509 3647 2328 
Q 3647 1150 3233 529 
Q 2819 -91 2034 -91 
Q 1250 -91 836 529 
Q 422 1150 422 2328 
Q 422 3509 836 4129 
Q 1250 4750 2034 4750 
z
" transform="scale(0.015625)"/>
        <path id="DejaVuSans-2e" d="M 684 794 
L 1344 794 
L 1344 0 
L 684 0 
L 684 794 
z
" transform="scale(0.015625)"/>
       </defs>
       <use xlink:href="#DejaVuSans-2d"/>
       <use xlink:href="#DejaVuSans-33" x="36.083984"/>
       <use xlink:href="#DejaVuSans-30" x="99.707031"/>
       <use xlink:href="#DejaVuSans-2e" x="163.330078"/>
       <use xlink:href="#DejaVuSans-30" x="195.117188"/>
      </g>
     </g>
    </g>
    <g id="xtick_2">
     <g id="line2d_2">
      <g>
       <use xlink:href="#m713759fb77" x="261.806276" y="315" style="stroke: #000000; stroke-width: 0.8"/>
      </g>
     </g>
     <g id="text_2">
      <!-- -20.0 -->
      <g transform="translate(242.401198 333.397656)scale(0.15 -0.15)">
       <defs>
        <path id="DejaVuSans-32" d="M 1228 531 
L 3431 531 
L 3431 0 
L 469 0 
L 469 531 
Q 828 903 1448 1529 
Q 2069 2156 2228 2338 
Q 2531 2678 2651 2914 
Q 2772 3150 2772 3378 
Q 2772 3750 2511 3984 
Q 2250 4219 1831 4219 
Q 1534 4219 1204 4116 
Q 875 4013 500 3803 
L 500 4441 
Q 881 4594 1212 4672 
Q 1544 4750 1819 4750 
Q 2544 4750 2975 4387 
Q 3406 4025 3406 3419 
Q 3406 3131 3298 2873 
Q 3191 2616 2906 2266 
Q 2828 2175 2409 1742 
Q 1991 1309 1228 531 
z
" transform="scale(0.015625)"/>
       </defs>
       <use xlink:href="#DejaVuSans-2d"/>
       <use xlink:href="#DejaVuSans-32" x="36.083984"/>
       <use xlink:href="#DejaVuSans-30" x="99.707031"/>
       <use xlink:href="#DejaVuSans-2e" x="163.330078"/>
       <use xlink:href="#DejaVuSans-30" x="195.117188"/>
      </g>
     </g>
    </g>
    <g id="xtick_3">
     <g id="line2d_3">
      <g>
       <use xlink:href="#m713759fb77" x="352.390692" y="315" style="stroke: #000000; stroke-width: 0.8"/>
      </g>
     </g>
     <g id="text_3">
      <!-- -10.0 -->
      <g transform="translate(332.985614 333.397656)scale(0.15 -0.15)">
       <defs>
        <path id="DejaVuSans-31" d="M 794 531 
L 1825 531 
L 1825 4091 
L 703 3866 
L 703 4441 
L 1819 4666 
L 2450 4666 
L 2450 531 
L 3481 531 
L 3481 0 
L 794 0 
L 794 531 
z
" transform="scale(0.015625)"/>
       </defs>
       <use xlink:href="#DejaVuSans-2d"/>
       <use xlink:href="#DejaVuSans-31" x="36.083984"/>
       <use xlink:href="#DejaVuSans-30" x="99.707031"/>
       <use xlink:href="#DejaVuSans-2e" x="163.330078"/>
       <use xlink:href="#DejaVuSans-30" x="195.117188"/>
      </g>
     </g>
    </g>
    <g id="xtick_4">
     <g id="line2d_4">
      <g>
       <use xlink:href="#m713759fb77" x="442.975107" y="315" style="stroke: #000000; stroke-width: 0.8"/>
      </g>
     </g>
     <g id="text_4">
      <!-- 0.0 -->
      <g transform="translate(431.047764 333.397656)scale(0.15 -0.15)">
       <use xlink:href="#DejaVuSans-30"/>
       <use xlink:href="#DejaVuSans-2e" x="63.623047"/>
       <use xlink:href="#DejaVuSans-30" x="95.410156"/>
      </g>
     </g>
    </g>
    <g id="xtick_5">
     <g id="line2d_5">
      <g>
       <use xlink:href="#m713759fb77" x="533.559523" y="315" style="stroke: #000000; stroke-width: 0.8"/>
      </g>
     </g>
     <g id="text_5">
      <!-- 10.0 -->
      <g transform="translate(516.860304 333.397656)scale(0.15 -0.15)">
       <use xlink:href="#DejaVuSans-31"/>
       <use xlink:href="#DejaVuSans-30" x="63.623047"/>
       <use xlink:href="#DejaVuSans-2e" x="127.246094"/>
       <use xlink:href="#DejaVuSans-30" x="159.033203"/>
      </g>
     </g>
    </g>
    <g id="xtick_6">
     <g id="line2d_6">
      <g>
       <use xlink:href="#m713759fb77" x="624.143938" y="315" style="stroke: #000000; stroke-width: 0.8"/>
      </g>
     </g>
     <g id="text_6">
      <!-- 20.0 -->
      <g transform="translate(607.44472 333.397656)scale(0.15 -0.15)">
       <use xlink:href="#DejaVuSans-32"/>
       <use xlink:href="#DejaVuSans-30" x="63.623047"/>
       <use xlink:href="#DejaVuSans-2e" x="127.246094"/>
       <use xlink:href="#DejaVuSans-30" x="159.033203"/>
      </g>
     </g>
    </g>
    <g id="text_7">
     <!-- Time delta -->
     <g transform="translate(329.269922 351.914844)scale(0.15 -0.15)">
      <defs>
       <path id="DejaVuSans-54" d="M -19 4666 
L 3928 4666 
L 3928 4134 
L 2272 4134 
L 2272 0 
L 1638 0 
L 1638 4134 
L -19 4134 
L -19 4666 
z
" transform="scale(0.015625)"/>
       <path id="DejaVuSans-69" d="M 603 3500 
L 1178 3500 
L 1178 0 
L 603 0 
L 603 3500 
z
M 603 4863 
L 1178 4863 
L 1178 4134 
L 603 4134 
L 603 4863 
z
" transform="scale(0.015625)"/>
       <path id="DejaVuSans-6d" d="M 3328 2828 
Q 3544 3216 3844 3400 
Q 4144 3584 4550 3584 
Q 5097 3584 5394 3201 
Q 5691 2819 5691 2113 
L 5691 0 
L 5113 0 
L 5113 2094 
Q 5113 2597 4934 2840 
Q 4756 3084 4391 3084 
Q 3944 3084 3684 2787 
Q 3425 2491 3425 1978 
L 3425 0 
L 2847 0 
L 2847 2094 
Q 2847 2600 2669 2842 
Q 2491 3084 2119 3084 
Q 1678 3084 1418 2786 
Q 1159 2488 1159 1978 
L 1159 0 
L 581 0 
L 581 3500 
L 1159 3500 
L 1159 2956 
Q 1356 3278 1631 3431 
Q 1906 3584 2284 3584 
Q 2666 3584 2933 3390 
Q 3200 3197 3328 2828 
z
" transform="scale(0.015625)"/>
       <path id="DejaVuSans-65" d="M 3597 1894 
L 3597 1613 
L 953 1613 
Q 991 1019 1311 708 
Q 1631 397 2203 397 
Q 2534 397 2845 478 
Q 3156 559 3463 722 
L 3463 178 
Q 3153 47 2828 -22 
Q 2503 -91 2169 -91 
Q 1331 -91 842 396 
Q 353 884 353 1716 
Q 353 2575 817 3079 
Q 1281 3584 2069 3584 
Q 2775 3584 3186 3129 
Q 3597 2675 3597 1894 
z
M 3022 2063 
Q 3016 2534 2758 2815 
Q 2500 3097 2075 3097 
Q 1594 3097 1305 2825 
Q 1016 2553 972 2059 
L 3022 2063 
z
" transform="scale(0.015625)"/>
       <path id="DejaVuSans-20" transform="scale(0.015625)"/>
       <path id="DejaVuSans-64" d="M 2906 2969 
L 2906 4863 
L 3481 4863 
L 3481 0 
L 2906 0 
L 2906 525 
Q 2725 213 2448 61 
Q 2172 -91 1784 -91 
Q 1150 -91 751 415 
Q 353 922 353 1747 
Q 353 2572 751 3078 
Q 1150 3584 1784 3584 
Q 2172 3584 2448 3432 
Q 2725 3281 2906 2969 
z
M 947 1747 
Q 947 1113 1208 752 
Q 1469 391 1925 391 
Q 2381 391 2643 752 
Q 2906 1113 2906 1747 
Q 2906 2381 2643 2742 
Q 2381 3103 1925 3103 
Q 1469 3103 1208 2742 
Q 947 2381 947 1747 
z
" transform="scale(0.015625)"/>
       <path id="DejaVuSans-6c" d="M 603 4863 
L 1178 4863 
L 1178 0 
L 603 0 
L 603 4863 
z
" transform="scale(0.015625)"/>
       <path id="DejaVuSans-74" d="M 1172 4494 
L 1172 3500 
L 2356 3500 
L 2356 3053 
L 1172 3053 
L 1172 1153 
Q 1172 725 1289 603 
Q 1406 481 1766 481 
L 2356 481 
L 2356 0 
L 1766 0 
Q 1100 0 847 248 
Q 594 497 594 1153 
L 594 3053 
L 172 3053 
L 172 3500 
L 594 3500 
L 594 4494 
L 1172 4494 
z
" transform="scale(0.015625)"/>
       <path id="DejaVuSans-61" d="M 2194 1759 
Q 1497 1759 1228 1600 
Q 959 1441 959 1056 
Q 959 750 1161 570 
Q 1363 391 1709 391 
Q 2188 391 2477 730 
Q 2766 1069 2766 1631 
L 2766 1759 
L 2194 1759 
z
M 3341 1997 
L 3341 0 
L 2766 0 
L 2766 531 
Q 2569 213 2275 61 
Q 1981 -91 1556 -91 
Q 1019 -91 701 211 
Q 384 513 384 1019 
Q 384 1609 779 1909 
Q 1175 2209 1959 2209 
L 2766 2209 
L 2766 2266 
Q 2766 2663 2505 2880 
Q 2244 3097 1772 3097 
Q 1472 3097 1187 3025 
Q 903 2953 641 2809 
L 641 3341 
Q 956 3463 1253 3523 
Q 1550 3584 1831 3584 
Q 2591 3584 2966 3190 
Q 3341 2797 3341 1997 
z
" transform="scale(0.015625)"/>
      </defs>
      <use xlink:href="#DejaVuSans-54"/>
      <use xlink:href="#DejaVuSans-69" x="57.958984"/>
      <use xlink:href="#DejaVuSans-6d" x="85.742188"/>
      <use xlink:href="#DejaVuSans-65" x="183.154297"/>
      <use xlink:href="#DejaVuSans-20" x="244.677734"/>
      <use xlink:href="#DejaVuSans-64" x="276.464844"/>
      <use xlink:href="#DejaVuSans-65" x="339.941406"/>
      <use xlink:href="#DejaVuSans-6c" x="401.464844"/>
      <use xlink:href="#DejaVuSans-74" x="429.248047"/>
      <use xlink:href="#DejaVuSans-61" x="468.457031"/>
     </g>
    </g>
   </g>
   <g id="matplotlib.axis_2">
    <g id="ytick_1">
     <g id="line2d_7">
      <defs>
       <path id="mc551b7d5e1" d="M 0 0 
L -3.5 0 
" style="stroke: #000000; stroke-width: 0.8"/>
      </defs>
      <g>
       <use xlink:href="#mc551b7d5e1" x="90" y="315" style="stroke: #000000; stroke-width: 0.8"/>
      </g>
     </g>
     <g id="text_8">
      <!-- -40.0 -->
      <g transform="translate(44.189844 320.698828)scale(0.15 -0.15)">
       <defs>
        <path id="DejaVuSans-34" d="M 2419 4116 
L 825 1625 
L 2419 1625 
L 2419 4116 
z
M 2253 4666 
L 3047 4666 
L 3047 1625 
L 3713 1625 
L 3713 1100 
L 3047 1100 
L 3047 0 
L 2419 0 
L 2419 1100 
L 313 1100 
L 313 1709 
L 2253 4666 
z
" transform="scale(0.015625)"/>
       </defs>
       <use xlink:href="#DejaVuSans-2d"/>
       <use xlink:href="#DejaVuSans-34" x="36.083984"/>
       <use xlink:href="#DejaVuSans-30" x="99.707031"/>
       <use xlink:href="#DejaVuSans-2e" x="163.330078"/>
       <use xlink:href="#DejaVuSans-30" x="195.117188"/>
      </g>
     </g>
    </g>
    <g id="ytick_2">
     <g id="line2d_8">
      <g>
       <use xlink:href="#mc551b7d5e1" x="90" y="283.432056" style="stroke: #000000; stroke-width: 0.8"/>
      </g>
     </g>
     <g id="text_9">
      <!-- -30.0 -->
      <g transform="translate(44.189844 289.130884)scale(0.15 -0.15)">
       <use xlink:href="#DejaVuSans-2d"/>
       <use xlink:href="#DejaVuSans-33" x="36.083984"/>
       <use xlink:href="#DejaVuSans-30" x="99.707031"/>
       <use xlink:href="#DejaVuSans-2e" x="163.330078"/>
       <use xlink:href="#DejaVuSans-30" x="195.117188"/>
      </g>
     </g>
    </g>
    <g id="ytick_3">
     <g id="line2d_9">
      <g>
       <use xlink:href="#mc551b7d5e1" x="90" y="251.864111" style="stroke: #000000; stroke-width: 0.8"/>
      </g>
     </g>
     <g id="text_10">
      <!-- -20.0 -->
      <g transform="translate(44.189844 257.56294)scale(0.15 -0.15)">
       <use xlink:href="#DejaVuSans-2d"/>
       <use xlink:href="#DejaVuSans-32" x="36.083984"/>
       <use xlink:href="#DejaVuSans-30" x="99.707031"/>
       <use xlink:href="#DejaVuSans-2e" x="163.330078"/>
       <use xlink:href="#DejaVuSans-30" x="195.117188"/>
      </g>
     </g>
    </g>
    <g id="ytick_4">
     <g id="line2d_10">
      <g>
       <use xlink:href="#mc551b7d5e1" x="90" y="220.296167" style="stroke: #000000; stroke-width: 0.8"/>
      </g>
     </g>
     <g id="text_11">
      <!-- -10.0 -->
      <g transform="translate(44.189844 225.994995)scale(0.15 -0.15)">
       <use xlink:href="#DejaVuSans-2d"/>
       <use xlink:href="#DejaVuSans-31" x="36.083984"/>
       <use xlink:href="#DejaVuSans-30" x="99.707031"/>
       <use xlink:href="#DejaVuSans-2e" x="163.330078"/>
       <use xlink:href="#DejaVuSans-30" x="195.117188"/>
      </g>
     </g>
    </g>
    <g id="ytick_5">
     <g id="line2d_11">
      <g>
       <use xlink:href="#mc551b7d5e1" x="90" y="188.728223" style="stroke: #000000; stroke-width: 0.8"/>
      </g>
     </g>
     <g id="text_12">
      <!-- 0.0 -->
      <g transform="translate(59.145313 194.427051)scale(0.15 -0.15)">
       <use xlink:href="#DejaVuSans-30"/>
       <use xlink:href="#DejaVuSans-2e" x="63.623047"/>
       <use xlink:href="#DejaVuSans-30" x="95.410156"/>
      </g>
     </g>
    </g>
    <g id="ytick_6">
     <g id="line2d_12">
      <g>
       <use xlink:href="#mc551b7d5e1" x="90" y="157.160279" style="stroke: #000000; stroke-width: 0.8"/>
      </g>
     </g>
     <g id="text_13">
      <!-- 10.0 -->
      <g transform="translate(49.601562 162.859107)scale(0.15 -0.15)">
       <use xlink:href="#DejaVuSans-31"/>
       <use xlink:href="#DejaVuSans-30" x="63.623047"/>
       <use xlink:href="#DejaVuSans-2e" x="127.246094"/>
       <use xlink:href="#DejaVuSans-30" x="159.033203"/>
      </g>
     </g>
    </g>
    <g id="ytick_7">
     <g id="line2d_13">
      <g>
       <use xlink:href="#mc551b7d5e1" x="90" y="125.592334" style="stroke: #000000; stroke-width: 0.8"/>
      </g>
     </g>
     <g id="text_14">
      <!-- 20.0 -->
      <g transform="translate(49.601562 131.291163)scale(0.15 -0.15)">
       <use xlink:href="#DejaVuSans-32"/>
       <use xlink:href="#DejaVuSans-30" x="63.623047"/>
       <use xlink:href="#DejaVuSans-2e" x="127.246094"/>
       <use xlink:href="#DejaVuSans-30" x="159.033203"/>
      </g>
     </g>
    </g>
    <g id="ytick_8">
     <g id="line2d_14">
      <g>
       <use xlink:href="#mc551b7d5e1" x="90" y="94.02439" style="stroke: #000000; stroke-width: 0.8"/>
      </g>
     </g>
     <g id="text_15">
      <!-- 30.0 -->
      <g transform="translate(49.601562 99.723218)scale(0.15 -0.15)">
       <use xlink:href="#DejaVuSans-33"/>
       <use xlink:href="#DejaVuSans-30" x="63.623047"/>
       <use xlink:href="#DejaVuSans-2e" x="127.246094"/>
       <use xlink:href="#DejaVuSans-30" x="159.033203"/>
      </g>
     </g>
    </g>
    <g id="ytick_9">
     <g id="line2d_15">
      <g>
       <use xlink:href="#mc551b7d5e1" x="90" y="62.456446" style="stroke: #000000; stroke-width: 0.8"/>
      </g>
     </g>
    </g>
    <g id="text_16">
     <!-- Count -->
     <g transform="translate(37.070312 201.372656)rotate(-90)scale(0.15 -0.15)">
      <defs>
       <path id="DejaVuSans-43" d="M 4122 4306 
L 4122 3641 
Q 3803 3938 3442 4084 
Q 3081 4231 2675 4231 
Q 1875 4231 1450 3742 
Q 1025 3253 1025 2328 
Q 1025 1406 1450 917 
Q 1875 428 2675 428 
Q 3081 428 3442 575 
Q 3803 722 4122 1019 
L 4122 359 
Q 3791 134 3420 21 
Q 3050 -91 2638 -91 
Q 1578 -91 968 557 
Q 359 1206 359 2328 
Q 359 3453 968 4101 
Q 1578 4750 2638 4750 
Q 3056 4750 3426 4639 
Q 3797 4528 4122 4306 
z
" transform="scale(0.015625)"/>
       <path id="DejaVuSans-6f" d="M 1959 3097 
Q 1497 3097 1228 2736 
Q 959 2375 959 1747 
Q 959 1119 1226 758 
Q 1494 397 1959 397 
Q 2419 397 2687 759 
Q 2956 1122 2956 1747 
Q 2956 2369 2687 2733 
Q 2419 3097 1959 3097 
z
M 1959 3584 
Q 2709 3584 3137 3096 
Q 3566 2609 3566 1747 
Q 3566 888 3137 398 
Q 2709 -91 1959 -91 
Q 1206 -91 779 398 
Q 353 888 353 1747 
Q 353 2609 779 3096 
Q 1206 3584 1959 3584 
z
" transform="scale(0.015625)"/>
       <path id="DejaVuSans-75" d="M 544 1381 
L 544 3500 
L 1119 3500 
L 1119 1403 
Q 1119 906 1312 657 
Q 1506 409 1894 409 
Q 2359 409 2629 706 
Q 2900 1003 2900 1516 
L 2900 3500 
L 3475 3500 
L 3475 0 
L 2900 0 
L 2900 538 
Q 2691 219 2414 64 
Q 2138 -91 1772 -91 
Q 1169 -91 856 284 
Q 544 659 544 1381 
z
M 1991 3584 
L 1991 3584 
z
" transform="scale(0.015625)"/>
       <path id="DejaVuSans-6e" d="M 3513 2113 
L 3513 0 
L 2938 0 
L 2938 2094 
Q 2938 2591 2744 2837 
Q 2550 3084 2163 3084 
Q 1697 3084 1428 2787 
Q 1159 2491 1159 1978 
L 1159 0 
L 581 0 
L 581 3500 
L 1159 3500 
L 1159 2956 
Q 1366 3272 1645 3428 
Q 1925 3584 2291 3584 
Q 2894 3584 3203 3211 
Q 3513 2838 3513 2113 
z
" transform="scale(0.015625)"/>
      </defs>
      <use xlink:href="#DejaVuSans-43"/>
      <use xlink:href="#DejaVuSans-6f" x="69.824219"/>
      <use xlink:href="#DejaVuSans-75" x="131.005859"/>
      <use xlink:href="#DejaVuSans-6e" x="194.384766"/>
      <use xlink:href="#DejaVuSans-74" x="257.763672"/>
     </g>
    </g>
   </g>
   <g id="line2d_16">
    <path d="M 442.975107 315 
L 442.975107 43.2 
" clip-path="url(#p0cca092d77)" style="fill: none; stroke-dasharray: 11.1,4.8; stroke-dashoffset: 0; stroke: #ff0000; stroke-width: 3"/>
   </g>
   <g id="patch_59">
    <path d="M 90 315 
L 90 43.2 
" style="fill: none; stroke: #000000; stroke-width: 0.8; stroke-linejoin: miter; stroke-linecap: square"/>
   </g>
   <g id="patch_60">
    <path d="M 648 315 
L 648 43.2 
" style="fill: none; stroke: #000000; stroke-width: 0.8; stroke-linejoin: miter; stroke-linecap: square"/>
   </g>
   <g id="patch_61">
    <path d="M 90 315 
L 648 315 
" style="fill: none; stroke: #000000; stroke-width: 0.8; stroke-linejoin: miter; stroke-linecap: square"/>
   </g>
   <g id="patch_62">
    <path d="M 90 43.2 
L 648 43.2 
" style="fill: none; stroke: #000000; stroke-width: 0.8; stroke-linejoin: miter; stroke-linecap: square"/>
   </g>
   <g id="text_17">
    <!-- Event 74850: pion  -->
    <g transform="translate(274.053125 -7.59125)scale(0.2 -0.2)">
     <defs>
      <path id="DejaVuSans-45" d="M 628 4666 
L 3578 4666 
L 3578 4134 
L 1259 4134 
L 1259 2753 
L 3481 2753 
L 3481 2222 
L 1259 2222 
L 1259 531 
L 3634 531 
L 3634 0 
L 628 0 
L 628 4666 
z
" transform="scale(0.015625)"/>
      <path id="DejaVuSans-76" d="M 191 3500 
L 800 3500 
L 1894 563 
L 2988 3500 
L 3597 3500 
L 2284 0 
L 1503 0 
L 191 3500 
z
" transform="scale(0.015625)"/>
      <path id="DejaVuSans-37" d="M 525 4666 
L 3525 4666 
L 3525 4397 
L 1831 0 
L 1172 0 
L 2766 4134 
L 525 4134 
L 525 4666 
z
" transform="scale(0.015625)"/>
      <path id="DejaVuSans-38" d="M 2034 2216 
Q 1584 2216 1326 1975 
Q 1069 1734 1069 1313 
Q 1069 891 1326 650 
Q 1584 409 2034 409 
Q 2484 409 2743 651 
Q 3003 894 3003 1313 
Q 3003 1734 2745 1975 
Q 2488 2216 2034 2216 
z
M 1403 2484 
Q 997 2584 770 2862 
Q 544 3141 544 3541 
Q 544 4100 942 4425 
Q 1341 4750 2034 4750 
Q 2731 4750 3128 4425 
Q 3525 4100 3525 3541 
Q 3525 3141 3298 2862 
Q 3072 2584 2669 2484 
Q 3125 2378 3379 2068 
Q 3634 1759 3634 1313 
Q 3634 634 3220 271 
Q 2806 -91 2034 -91 
Q 1263 -91 848 271 
Q 434 634 434 1313 
Q 434 1759 690 2068 
Q 947 2378 1403 2484 
z
M 1172 3481 
Q 1172 3119 1398 2916 
Q 1625 2713 2034 2713 
Q 2441 2713 2670 2916 
Q 2900 3119 2900 3481 
Q 2900 3844 2670 4047 
Q 2441 4250 2034 4250 
Q 1625 4250 1398 4047 
Q 1172 3844 1172 3481 
z
" transform="scale(0.015625)"/>
      <path id="DejaVuSans-35" d="M 691 4666 
L 3169 4666 
L 3169 4134 
L 1269 4134 
L 1269 2991 
Q 1406 3038 1543 3061 
Q 1681 3084 1819 3084 
Q 2600 3084 3056 2656 
Q 3513 2228 3513 1497 
Q 3513 744 3044 326 
Q 2575 -91 1722 -91 
Q 1428 -91 1123 -41 
Q 819 9 494 109 
L 494 744 
Q 775 591 1075 516 
Q 1375 441 1709 441 
Q 2250 441 2565 725 
Q 2881 1009 2881 1497 
Q 2881 1984 2565 2268 
Q 2250 2553 1709 2553 
Q 1456 2553 1204 2497 
Q 953 2441 691 2322 
L 691 4666 
z
" transform="scale(0.015625)"/>
      <path id="DejaVuSans-3a" d="M 750 794 
L 1409 794 
L 1409 0 
L 750 0 
L 750 794 
z
M 750 3309 
L 1409 3309 
L 1409 2516 
L 750 2516 
L 750 3309 
z
" transform="scale(0.015625)"/>
      <path id="DejaVuSans-70" d="M 1159 525 
L 1159 -1331 
L 581 -1331 
L 581 3500 
L 1159 3500 
L 1159 2969 
Q 1341 3281 1617 3432 
Q 1894 3584 2278 3584 
Q 2916 3584 3314 3078 
Q 3713 2572 3713 1747 
Q 3713 922 3314 415 
Q 2916 -91 2278 -91 
Q 1894 -91 1617 61 
Q 1341 213 1159 525 
z
M 3116 1747 
Q 3116 2381 2855 2742 
Q 2594 3103 2138 3103 
Q 1681 3103 1420 2742 
Q 1159 2381 1159 1747 
Q 1159 1113 1420 752 
Q 1681 391 2138 391 
Q 2594 391 2855 752 
Q 3116 1113 3116 1747 
z
" transform="scale(0.015625)"/>
     </defs>
     <use xlink:href="#DejaVuSans-45"/>
     <use xlink:href="#DejaVuSans-76" x="63.183594"/>
     <use xlink:href="#DejaVuSans-65" x="122.363281"/>
     <use xlink:href="#DejaVuSans-6e" x="183.886719"/>
     <use xlink:href="#DejaVuSans-74" x="247.265625"/>
     <use xlink:href="#DejaVuSans-20" x="286.474609"/>
     <use xlink:href="#DejaVuSans-37" x="318.261719"/>
     <use xlink:href="#DejaVuSans-34" x="381.884766"/>
     <use xlink:href="#DejaVuSans-38" x="445.507812"/>
     <use xlink:href="#DejaVuSans-35" x="509.130859"/>
     <use xlink:href="#DejaVuSans-30" x="572.753906"/>
     <use xlink:href="#DejaVuSans-3a" x="636.376953"/>
     <use xlink:href="#DejaVuSans-20" x="670.068359"/>
     <use xlink:href="#DejaVuSans-70" x="701.855469"/>
     <use xlink:href="#DejaVuSans-69" x="765.332031"/>
     <use xlink:href="#DejaVuSans-6f" x="793.115234"/>
     <use xlink:href="#DejaVuSans-6e" x="854.296875"/>
     <use xlink:href="#DejaVuSans-20" x="917.675781"/>
    </g>
    <!--  Momentum: 44.127235  -->
    <g transform="translate(245.042188 14.804375)scale(0.2 -0.2)">
     <defs>
      <path id="DejaVuSans-4d" d="M 628 4666 
L 1569 4666 
L 2759 1491 
L 3956 4666 
L 4897 4666 
L 4897 0 
L 4281 0 
L 4281 4097 
L 3078 897 
L 2444 897 
L 1241 4097 
L 1241 0 
L 628 0 
L 628 4666 
z
" transform="scale(0.015625)"/>
     </defs>
     <use xlink:href="#DejaVuSans-20"/>
     <use xlink:href="#DejaVuSans-4d" x="31.787109"/>
     <use xlink:href="#DejaVuSans-6f" x="118.066406"/>
     <use xlink:href="#DejaVuSans-6d" x="179.248047"/>
     <use xlink:href="#DejaVuSans-65" x="276.660156"/>
     <use xlink:href="#DejaVuSans-6e" x="338.183594"/>
     <use xlink:href="#DejaVuSans-74" x="401.5625"/>
     <use xlink:href="#DejaVuSans-75" x="440.771484"/>
     <use xlink:href="#DejaVuSans-6d" x="504.150391"/>
     <use xlink:href="#DejaVuSans-3a" x="601.5625"/>
     <use xlink:href="#DejaVuSans-20" x="635.253906"/>
     <use xlink:href="#DejaVuSans-34" x="667.041016"/>
     <use xlink:href="#DejaVuSans-34" x="730.664062"/>
     <use xlink:href="#DejaVuSans-2e" x="794.287109"/>
     <use xlink:href="#DejaVuSans-31" x="826.074219"/>
     <use xlink:href="#DejaVuSans-32" x="889.697266"/>
     <use xlink:href="#DejaVuSans-37" x="953.320312"/>
     <use xlink:href="#DejaVuSans-32" x="1016.943359"/>
     <use xlink:href="#DejaVuSans-33" x="1080.566406"/>
     <use xlink:href="#DejaVuSans-35" x="1144.189453"/>
     <use xlink:href="#DejaVuSans-20" x="1207.8125"/>
    </g>
    <!--  Total hits: 73 -->
    <g transform="translate(301.773438 37.2)scale(0.2 -0.2)">
     <defs>
      <path id="DejaVuSans-68" d="M 3513 2113 
L 3513 0 
L 2938 0 
L 2938 2094 
Q 2938 2591 2744 2837 
Q 2550 3084 2163 3084 
Q 1697 3084 1428 2787 
Q 1159 2491 1159 1978 
L 1159 0 
L 581 0 
L 581 4863 
L 1159 4863 
L 1159 2956 
Q 1366 3272 1645 3428 
Q 1925 3584 2291 3584 
Q 2894 3584 3203 3211 
Q 3513 2838 3513 2113 
z
" transform="scale(0.015625)"/>
      <path id="DejaVuSans-73" d="M 2834 3397 
L 2834 2853 
Q 2591 2978 2328 3040 
Q 2066 3103 1784 3103 
Q 1356 3103 1142 2972 
Q 928 2841 928 2578 
Q 928 2378 1081 2264 
Q 1234 2150 1697 2047 
L 1894 2003 
Q 2506 1872 2764 1633 
Q 3022 1394 3022 966 
Q 3022 478 2636 193 
Q 2250 -91 1575 -91 
Q 1294 -91 989 -36 
Q 684 19 347 128 
L 347 722 
Q 666 556 975 473 
Q 1284 391 1588 391 
Q 1994 391 2212 530 
Q 2431 669 2431 922 
Q 2431 1156 2273 1281 
Q 2116 1406 1581 1522 
L 1381 1569 
Q 847 1681 609 1914 
Q 372 2147 372 2553 
Q 372 3047 722 3315 
Q 1072 3584 1716 3584 
Q 2034 3584 2315 3537 
Q 2597 3491 2834 3397 
z
" transform="scale(0.015625)"/>
     </defs>
     <use xlink:href="#DejaVuSans-20"/>
     <use xlink:href="#DejaVuSans-54" x="31.787109"/>
     <use xlink:href="#DejaVuSans-6f" x="75.871094"/>
     <use xlink:href="#DejaVuSans-74" x="137.052734"/>
     <use xlink:href="#DejaVuSans-61" x="176.261719"/>
     <use xlink:href="#DejaVuSans-6c" x="237.541016"/>
     <use xlink:href="#DejaVuSans-20" x="265.324219"/>
     <use xlink:href="#DejaVuSans-68" x="297.111328"/>
     <use xlink:href="#DejaVuSans-69" x="360.490234"/>
     <use xlink:href="#DejaVuSans-74" x="388.273438"/>
     <use xlink:href="#DejaVuSans-73" x="427.482422"/>
     <use xlink:href="#DejaVuSans-3a" x="479.582031"/>
     <use xlink:href="#DejaVuSans-20" x="513.273438"/>
     <use xlink:href="#DejaVuSans-37" x="545.060547"/>
     <use xlink:href="#DejaVuSans-33" x="608.683594"/>
    </g>
   </g>
  </g>
 </g>
 <defs>
  <clipPath id="p0cca092d77">
   <rect x="90" y="43.2" width="558" height="271.8"/>
  </clipPath>
 </defs>
</svg>
